REM DIRINDEX 1\2\4,1\2\5,1\2\6,1\3\7,1\3\8
REM DIRNAME cjc128,folder01,folder02,folder03,folder04,folder05,folder06,folder07
TITLE ""
FILE "023_Lesson 19_Output_Stage.mp3" MP3
  TRACK 01 AUDIO
    TITLE "0:"
    INDEX 01 00:00:00
  TRACK 02 AUDIO
    TITLE "6:cjc128_1353"
    INDEX 01 00:00:11
  TRACK 03 AUDIO
    TITLE "0:"
    INDEX 01 00:03:29
  TRACK 04 AUDIO
    TITLE "6:cjc128_1354"
    INDEX 01 00:04:31
  TRACK 05 AUDIO
    TITLE "0:"
    INDEX 01 00:06:37
  TRACK 06 AUDIO
    TITLE "4:cjc128_1355"
    INDEX 01 00:07:17
  TRACK 07 AUDIO
    TITLE "0:"
    INDEX 01 00:10:14
  TRACK 08 AUDIO
    TITLE "5:cjc128_1356"
    INDEX 01 00:14:33
  TRACK 09 AUDIO
    TITLE "0:"
    INDEX 01 00:17:70
  TRACK 10 AUDIO
    TITLE "6:cjc128_1357"
    INDEX 01 00:18:42
  TRACK 11 AUDIO
    TITLE "0:"
    INDEX 01 00:20:49
  TRACK 12 AUDIO
    TITLE "4:cjc128_1358"
    INDEX 01 00:21:33
  TRACK 13 AUDIO
    TITLE "0:"
    INDEX 01 00:24:18
  TRACK 14 AUDIO
    TITLE "5:cjc128_1359"
    INDEX 01 00:27:26
  TRACK 15 AUDIO
    TITLE "0:"
    INDEX 01 00:29:34
  TRACK 16 AUDIO
    TITLE "6:cjc128_1360"
    INDEX 01 00:30:26
  TRACK 17 AUDIO
    TITLE "0:"
    INDEX 01 00:32:27
  TRACK 18 AUDIO
    TITLE "4:cjc128_1361"
    INDEX 01 00:33:13
  TRACK 19 AUDIO
    TITLE "0:"
    INDEX 01 00:37:24
  TRACK 20 AUDIO
    TITLE "5:cjc128_1362"
    INDEX 01 00:42:29
  TRACK 21 AUDIO
    TITLE "0:"
    INDEX 01 00:46:54
  TRACK 22 AUDIO
    TITLE "6:cjc128_1363"
    INDEX 01 00:47:44
  TRACK 23 AUDIO
    TITLE "0:"
    INDEX 01 00:49:43
  TRACK 24 AUDIO
    TITLE "4:cjc128_1364"
    INDEX 01 00:50:35
  TRACK 25 AUDIO
    TITLE "0:"
    INDEX 01 00:55:22
  TRACK 26 AUDIO
    TITLE "5:cjc128_1365"
    INDEX 01 00:59:63
  TRACK 27 AUDIO
    TITLE "0:"
    INDEX 01 01:03:59
  TRACK 28 AUDIO
    TITLE "6:cjc128_1366"
    INDEX 01 01:04:45
  TRACK 29 AUDIO
    TITLE "0:"
    INDEX 01 01:06:36
  TRACK 30 AUDIO
    TITLE "4:cjc128_1367"
    INDEX 01 01:07:25
  TRACK 31 AUDIO
    TITLE "0:"
    INDEX 01 01:10:35
  TRACK 32 AUDIO
    TITLE "5:cjc128_1368"
    INDEX 01 01:14:00
  TRACK 33 AUDIO
    TITLE "0:"
    INDEX 01 01:17:06
  TRACK 34 AUDIO
    TITLE "6:cjc128_1369"
    INDEX 01 01:17:49
  TRACK 35 AUDIO
    TITLE "0:"
    INDEX 01 01:19:54
  TRACK 36 AUDIO
    TITLE "4:cjc128_1370"
    INDEX 01 01:20:24
  TRACK 37 AUDIO
    TITLE "0:"
    INDEX 01 01:23:56
  TRACK 38 AUDIO
    TITLE "5:cjc128_1371"
    INDEX 01 01:27:53
  TRACK 39 AUDIO
    TITLE "0:"
    INDEX 01 01:31:18
  TRACK 40 AUDIO
    TITLE "6:cjc128_1372"
    INDEX 01 01:31:65
  TRACK 41 AUDIO
    TITLE "0:"
    INDEX 01 01:33:42
  TRACK 42 AUDIO
    TITLE "4:cjc128_1373"
    INDEX 01 01:34:34
  TRACK 43 AUDIO
    TITLE "0:"
    INDEX 01 01:37:54
  TRACK 44 AUDIO
    TITLE "5:cjc128_1374"
    INDEX 01 01:41:61
  TRACK 45 AUDIO
    TITLE "0:"
    INDEX 01 01:45:02
  TRACK 46 AUDIO
    TITLE "6:cjc128_1375"
    INDEX 01 01:45:57
  TRACK 47 AUDIO
    TITLE "0:"
    INDEX 01 01:47:58
  TRACK 48 AUDIO
    TITLE "4:cjc128_1376"
    INDEX 01 01:48:48
  TRACK 49 AUDIO
    TITLE "0:"
    INDEX 01 01:51:25
  TRACK 50 AUDIO
    TITLE "5:cjc128_1377"
    INDEX 01 01:54:52
  TRACK 51 AUDIO
    TITLE "0:"
    INDEX 01 01:57:31
  TRACK 52 AUDIO
    TITLE "6:cjc128_1378"
    INDEX 01 01:58:23
  TRACK 53 AUDIO
    TITLE "0:"
    INDEX 01 02:00:37
  TRACK 54 AUDIO
    TITLE "4:cjc128_1379"
    INDEX 01 02:01:25
  TRACK 55 AUDIO
    TITLE "0:"
    INDEX 01 02:04:62
  TRACK 56 AUDIO
    TITLE "5:cjc128_1380"
    INDEX 01 02:09:24
  TRACK 57 AUDIO
    TITLE "0:"
    INDEX 01 02:13:32
  TRACK 58 AUDIO
    TITLE "6:cjc128_1381"
    INDEX 01 02:14:18
  TRACK 59 AUDIO
    TITLE "0:"
    INDEX 01 02:16:17
  TRACK 60 AUDIO
    TITLE "4:cjc128_1382"
    INDEX 01 02:17:08
  TRACK 61 AUDIO
    TITLE "0:"
    INDEX 01 02:20:12
  TRACK 62 AUDIO
    TITLE "5:cjc128_1383"
    INDEX 01 02:23:05
  TRACK 63 AUDIO
    TITLE "0:"
    INDEX 01 02:25:12
  TRACK 64 AUDIO
    TITLE "6:cjc128_1384"
    INDEX 01 02:25:72
  TRACK 65 AUDIO
    TITLE "0:"
    INDEX 01 02:27:73
  TRACK 66 AUDIO
    TITLE "4:cjc128_1385"
    INDEX 01 02:28:67
  TRACK 67 AUDIO
    TITLE "0:"
    INDEX 01 02:31:30
  TRACK 68 AUDIO
    TITLE "5:cjc128_1386"
    INDEX 01 02:34:50
  TRACK 69 AUDIO
    TITLE "0:"
    INDEX 01 02:37:29
  TRACK 70 AUDIO
    TITLE "6:cjc128_1387"
    INDEX 01 02:38:06
  TRACK 71 AUDIO
    TITLE "0:"
    INDEX 01 02:40:13
  TRACK 72 AUDIO
    TITLE "4:cjc128_1388"
    INDEX 01 02:40:66
  TRACK 73 AUDIO
    TITLE "0:"
    INDEX 01 02:44:38
  TRACK 74 AUDIO
    TITLE "5:cjc128_1389"
    INDEX 01 02:48:17
  TRACK 75 AUDIO
    TITLE "0:"
    INDEX 01 02:51:05
  TRACK 76 AUDIO
    TITLE "6:cjc128_1390"
    INDEX 01 02:51:68
  TRACK 77 AUDIO
    TITLE "0:"
    INDEX 01 02:53:65
  TRACK 78 AUDIO
    TITLE "4:cjc128_1391"
    INDEX 01 02:54:62
  TRACK 79 AUDIO
    TITLE "0:"
    INDEX 01 02:58:50
  TRACK 80 AUDIO
    TITLE "5:cjc128_1392"
    INDEX 01 03:02:56
  TRACK 81 AUDIO
    TITLE "0:"
    INDEX 01 03:06:15
  TRACK 82 AUDIO
    TITLE "6:cjc128_1393"
    INDEX 01 03:07:00
  TRACK 83 AUDIO
    TITLE "0:"
    INDEX 01 03:09:05
  TRACK 84 AUDIO
    TITLE "4:cjc128_1394"
    INDEX 01 03:09:68
  TRACK 85 AUDIO
    TITLE "0:"
    INDEX 01 03:12:50
  TRACK 86 AUDIO
    TITLE "5:cjc128_1395"
    INDEX 01 03:16:56
  TRACK 87 AUDIO
    TITLE "0:"
    INDEX 01 03:19:62
  TRACK 88 AUDIO
    TITLE "6:cjc128_1396"
    INDEX 01 03:20:46
  TRACK 89 AUDIO
    TITLE "0:"
    INDEX 01 03:22:39
  TRACK 90 AUDIO
    TITLE "4:cjc128_1397"
    INDEX 01 03:23:21
  TRACK 91 AUDIO
    TITLE "0:"
    INDEX 01 03:27:38
  TRACK 92 AUDIO
    TITLE "5:cjc128_1398"
    INDEX 01 03:31:42
  TRACK 93 AUDIO
    TITLE "0:"
    INDEX 01 03:34:60
  TRACK 94 AUDIO
    TITLE "6:cjc128_1399"
    INDEX 01 03:35:44
  TRACK 95 AUDIO
    TITLE "0:"
    INDEX 01 03:37:45
  TRACK 96 AUDIO
    TITLE "4:cjc128_1400"
    INDEX 01 03:38:24
  TRACK 97 AUDIO
    TITLE "0:"
    INDEX 01 03:42:05
  TRACK 98 AUDIO
    TITLE "5:cjc128_1401"
    INDEX 01 03:45:66
  TRACK 99 AUDIO
    TITLE "0:"
    INDEX 01 03:48:66
  TRACK 100 AUDIO
    TITLE "6:cjc128_1402"
    INDEX 01 03:49:40
  TRACK 101 AUDIO
    TITLE "0:"
    INDEX 01 03:51:23
  TRACK 102 AUDIO
    TITLE "4:cjc128_1403"
    INDEX 01 03:52:05
  TRACK 103 AUDIO
    TITLE "0:"
    INDEX 01 03:56:61
  TRACK 104 AUDIO
    TITLE "5:cjc128_1404"
    INDEX 01 04:02:41
  TRACK 105 AUDIO
    TITLE "0:"
    INDEX 01 04:07:26
  TRACK 106 AUDIO
    TITLE "6:cjc128_1405"
    INDEX 01 04:08:14
  TRACK 107 AUDIO
    TITLE "0:"
    INDEX 01 04:10:09
  TRACK 108 AUDIO
    TITLE "4:cjc128_1406"
    INDEX 01 04:10:62
  TRACK 109 AUDIO
    TITLE "0:"
    INDEX 01 04:16:15
  TRACK 110 AUDIO
    TITLE "5:cjc128_1407"
    INDEX 01 04:21:65
  TRACK 111 AUDIO
    TITLE "0:"
    INDEX 01 04:26:61
  TRACK 112 AUDIO
    TITLE "6:cjc128_1408"
    INDEX 01 04:27:44
  TRACK 113 AUDIO
    TITLE "0:"
    INDEX 01 04:29:45
  TRACK 114 AUDIO
    TITLE "4:cjc128_1409"
    INDEX 01 04:30:39
  TRACK 115 AUDIO
    TITLE "0:"
    INDEX 01 04:33:18
  TRACK 116 AUDIO
    TITLE "5:cjc128_1410"
    INDEX 01 04:36:49
  TRACK 117 AUDIO
    TITLE "0:"
    INDEX 01 04:39:06
  TRACK 118 AUDIO
    TITLE "6:cjc128_1411"
    INDEX 01 04:39:73
  TRACK 119 AUDIO
    TITLE "0:"
    INDEX 01 04:41:72
  TRACK 120 AUDIO
    TITLE "4:cjc128_1412"
    INDEX 01 04:42:67
  TRACK 121 AUDIO
    TITLE "0:"
    INDEX 01 04:47:63
  TRACK 122 AUDIO
    TITLE "5:cjc128_1413"
    INDEX 01 04:52:40
  TRACK 123 AUDIO
    TITLE "0:"
    INDEX 01 04:56:66
  TRACK 124 AUDIO
    TITLE "6:cjc128_1414"
    INDEX 01 04:57:47
  TRACK 125 AUDIO
    TITLE "0:"
    INDEX 01 04:59:50
  TRACK 126 AUDIO
    TITLE "4:cjc128_1415"
    INDEX 01 05:00:46
  TRACK 127 AUDIO
    TITLE "0:"
    INDEX 01 05:02:49
  TRACK 128 AUDIO
    TITLE "5:cjc128_1416"
    INDEX 01 05:05:23
  TRACK 129 AUDIO
    TITLE "0:"
    INDEX 01 05:07:09
  TRACK 130 AUDIO
    TITLE "4:cjc128_1417"
    INDEX 01 05:07:69
  TRACK 131 AUDIO
    TITLE "0:"
    INDEX 01 05:09:27
  TRACK 132 AUDIO
    TITLE "5:cjc128_1418"
    INDEX 01 05:12:29
  TRACK 133 AUDIO
    TITLE "0:"
    INDEX 01 05:14:42
  TRACK 134 AUDIO
    TITLE "6:cjc128_1419"
    INDEX 01 05:15:24
  TRACK 135 AUDIO
    TITLE "0:"
    INDEX 01 05:17:29
  TRACK 136 AUDIO
    TITLE "4:cjc128_1420"
    INDEX 01 05:18:20
  TRACK 137 AUDIO
    TITLE "0:"
    INDEX 01 05:23:21
  TRACK 138 AUDIO
    TITLE "5:cjc128_1421"
    INDEX 01 05:28:44
  TRACK 139 AUDIO
    TITLE "0:"
    INDEX 01 05:33:02
  TRACK 140 AUDIO
    TITLE "6:cjc128_1422"
    INDEX 01 05:33:61
  TRACK 141 AUDIO
    TITLE "0:"
    INDEX 01 05:35:70
  TRACK 142 AUDIO
    TITLE "4:cjc128_1423"
    INDEX 01 05:36:61
  TRACK 143 AUDIO
    TITLE "0:"
    INDEX 01 05:41:45
  TRACK 144 AUDIO
    TITLE "5:cjc128_1424"
    INDEX 01 05:45:29
  TRACK 145 AUDIO
    TITLE "0:"
    INDEX 01 05:48:45
  TRACK 146 AUDIO
    TITLE "6:cjc128_1425"
    INDEX 01 05:49:31
  TRACK 147 AUDIO
    TITLE "0:"
    INDEX 01 05:51:26
  TRACK 148 AUDIO
    TITLE "4:cjc128_1426"
    INDEX 01 05:52:15
  TRACK 149 AUDIO
    TITLE "0:"
    INDEX 01 05:56:40
  TRACK 150 AUDIO
    TITLE "5:cjc128_1427"
    INDEX 01 06:00:60
  TRACK 151 AUDIO
    TITLE "0:"
    INDEX 01 06:04:14
  TRACK 152 AUDIO
    TITLE "6:cjc128_1428"
    INDEX 01 06:04:67
  TRACK 153 AUDIO
    TITLE "0:"
    INDEX 01 06:06:72
  TRACK 154 AUDIO
    TITLE "4:cjc128_1429"
    INDEX 01 06:07:62
  TRACK 155 AUDIO
    TITLE "0:"
    INDEX 01 06:10:54
  TRACK 156 AUDIO
    TITLE "5:cjc128_1430"
    INDEX 01 06:13:64
  TRACK 157 AUDIO
    TITLE "0:"
    INDEX 01 06:16:22
  TRACK 158 AUDIO
    TITLE "6:cjc128_1431"
    INDEX 01 06:17:05
  TRACK 159 AUDIO
    TITLE "0:"
    INDEX 01 06:18:66
  TRACK 160 AUDIO
    TITLE "4:cjc128_1432"
    INDEX 01 06:19:51
  TRACK 161 AUDIO
    TITLE "0:"
    INDEX 01 06:24:58
  TRACK 162 AUDIO
    TITLE "5:cjc128_1433"
    INDEX 01 06:29:28
  TRACK 163 AUDIO
    TITLE "0:"
    INDEX 01 06:33:18
  TRACK 164 AUDIO
    TITLE "6:cjc128_1434"
    INDEX 01 06:34:00
  TRACK 165 AUDIO
    TITLE "0:"
    INDEX 01 06:36:11
  TRACK 166 AUDIO
    TITLE "4:cjc128_1435"
    INDEX 01 06:37:00
  TRACK 167 AUDIO
    TITLE "0:"
    INDEX 01 06:41:14
  TRACK 168 AUDIO
    TITLE "5:cjc128_1436"
    INDEX 01 06:45:47
  TRACK 169 AUDIO
    TITLE "0:"
    INDEX 01 06:49:09
